# xmcd CD database file
#
# Track frame offsets:
#	150
#	17037
#	38600
#
# Disc length: 737 seconds
#
# Revision: 1
# Processed by: cddbd v1.5.2PL0 Copyright (c) Steve Scherf et al.
# Submitted via: CDex 1.82
#
DISCID=1702df03
DTITLE=Morning Musume - Namida ga Tomaranai Houkago
DYEAR=2004
DGENRE=Jpop
TTITLE0=Namida ga Tomaranai Houkago 
TTITLE1=Nebou Desu. Date na no ni...
TTITLE2=Namida ga Tomaranai Houkago (Instrumental)
EXTD=YEAR: 2004
EXTT0=
EXTT1=
EXTT2=
PLAYORDER=
